<svg width="14" height="14" viewBox="0 0 14 14" fill="none" xmlns="http://www.w3.org/2000/svg">
<path fill-rule="evenodd" clip-rule="evenodd" d="M9.84772 8.99044L13.8289 12.9573C14.057 13.1846 14.057 13.5519 13.8289 13.7792C13.7152 13.8925 13.5659 13.9495 13.4165 13.9495C13.2672 13.9495 13.1179 13.8925 13.0041 13.7792L9.0229 9.81229C8.07034 10.5807 6.85992 11.0433 5.54162 11.0433C2.48615 11.0433 0 8.56613 0 5.52165C0 2.47718 2.48612 0 5.54159 0C8.59705 0 11.0832 2.47721 11.0832 5.52168C11.0832 6.83525 10.6189 8.04131 9.84772 8.99044ZM1.16666 5.52165C1.16666 7.92562 3.12897 9.88087 5.54161 9.88087C7.95424 9.88087 9.91657 7.92562 9.91657 5.52165C9.91657 3.11768 7.95426 1.16244 5.54161 1.16244C3.12897 1.16244 1.16666 3.11768 1.16666 5.52165Z" fill="black" fill-opacity="0.5"/>
</svg>
